<mxfile host="Electron" agent="Mozilla/5.0 (Windows NT 10.0; Win64; x64) AppleWebKit/537.36 (KHTML, like Gecko) draw.io/24.7.5 Chrome/126.0.6478.183 Electron/31.3.0 Safari/537.36" version="24.7.5">
  <diagram name="第 1 页" id="nsxJLc1dvf7kwepm8-jS">
    <mxGraphModel dx="1091" dy="855" grid="1" gridSize="10" guides="1" tooltips="1" connect="1" arrows="1" fold="1" page="1" pageScale="1" pageWidth="827" pageHeight="1169" math="0" shadow="0">
      <root>
        <mxCell id="0" />
        <mxCell id="1" parent="0" />
        <mxCell id="mOv1wEPNL8f3eLhTAkVn-103" value="" style="rounded=0;whiteSpace=wrap;html=1;" vertex="1" parent="1">
          <mxGeometry x="180" y="100" width="340" height="490" as="geometry" />
        </mxCell>
        <mxCell id="mOv1wEPNL8f3eLhTAkVn-2" value="用户" style="shape=umlActor;verticalLabelPosition=bottom;verticalAlign=top;html=1;outlineConnect=0;" vertex="1" parent="1">
          <mxGeometry x="60" y="300" width="30" height="60" as="geometry" />
        </mxCell>
        <mxCell id="mOv1wEPNL8f3eLhTAkVn-3" value="系统管理员" style="shape=umlActor;verticalLabelPosition=bottom;verticalAlign=top;html=1;outlineConnect=0;" vertex="1" parent="1">
          <mxGeometry x="590" y="300" width="30" height="60" as="geometry" />
        </mxCell>
        <mxCell id="mOv1wEPNL8f3eLhTAkVn-4" value="&lt;font style=&quot;font-size: 14px;&quot;&gt;宠物社区&lt;/font&gt;" style="text;strokeColor=none;fillColor=none;html=1;fontSize=24;fontStyle=1;verticalAlign=middle;align=center;" vertex="1" parent="1">
          <mxGeometry x="280" y="110" width="100" height="40" as="geometry" />
        </mxCell>
        <mxCell id="mOv1wEPNL8f3eLhTAkVn-5" value="发布帖子" style="ellipse;whiteSpace=wrap;html=1;" vertex="1" parent="1">
          <mxGeometry x="208.75" y="180" width="90" height="40" as="geometry" />
        </mxCell>
        <mxCell id="mOv1wEPNL8f3eLhTAkVn-6" value="评论帖子" style="ellipse;whiteSpace=wrap;html=1;" vertex="1" parent="1">
          <mxGeometry x="210" y="250" width="87.5" height="40" as="geometry" />
        </mxCell>
        <mxCell id="mOv1wEPNL8f3eLhTAkVn-7" value="点赞/点踩帖子" style="ellipse;whiteSpace=wrap;html=1;" vertex="1" parent="1">
          <mxGeometry x="208.75" y="310" width="90" height="40" as="geometry" />
        </mxCell>
        <mxCell id="mOv1wEPNL8f3eLhTAkVn-8" value="举报帖子或评论" style="ellipse;whiteSpace=wrap;html=1;" vertex="1" parent="1">
          <mxGeometry x="210" y="370" width="90" height="40" as="geometry" />
        </mxCell>
        <mxCell id="mOv1wEPNL8f3eLhTAkVn-11" value="收藏帖子" style="ellipse;whiteSpace=wrap;html=1;" vertex="1" parent="1">
          <mxGeometry x="210" y="430" width="90" height="40" as="geometry" />
        </mxCell>
        <mxCell id="mOv1wEPNL8f3eLhTAkVn-14" value="置顶帖子" style="ellipse;whiteSpace=wrap;html=1;" vertex="1" parent="1">
          <mxGeometry x="210" y="510" width="90" height="40" as="geometry" />
        </mxCell>
        <mxCell id="mOv1wEPNL8f3eLhTAkVn-77" value="" style="endArrow=none;html=1;rounded=0;exitX=1;exitY=0.3333333333333333;exitDx=0;exitDy=0;exitPerimeter=0;entryX=0;entryY=0.5;entryDx=0;entryDy=0;" edge="1" parent="1" source="mOv1wEPNL8f3eLhTAkVn-2" target="mOv1wEPNL8f3eLhTAkVn-5">
          <mxGeometry width="50" height="50" relative="1" as="geometry">
            <mxPoint x="230" y="420" as="sourcePoint" />
            <mxPoint x="280" y="370" as="targetPoint" />
          </mxGeometry>
        </mxCell>
        <mxCell id="mOv1wEPNL8f3eLhTAkVn-78" value="" style="endArrow=none;html=1;rounded=0;entryX=0;entryY=0.5;entryDx=0;entryDy=0;exitX=1;exitY=0.3333333333333333;exitDx=0;exitDy=0;exitPerimeter=0;" edge="1" parent="1" target="mOv1wEPNL8f3eLhTAkVn-6" source="mOv1wEPNL8f3eLhTAkVn-2">
          <mxGeometry width="50" height="50" relative="1" as="geometry">
            <mxPoint x="90" y="380" as="sourcePoint" />
            <mxPoint x="220" y="90" as="targetPoint" />
          </mxGeometry>
        </mxCell>
        <mxCell id="mOv1wEPNL8f3eLhTAkVn-79" value="" style="endArrow=none;html=1;rounded=0;entryX=0;entryY=0.5;entryDx=0;entryDy=0;exitX=1;exitY=0.3333333333333333;exitDx=0;exitDy=0;exitPerimeter=0;" edge="1" parent="1" target="mOv1wEPNL8f3eLhTAkVn-7" source="mOv1wEPNL8f3eLhTAkVn-2">
          <mxGeometry width="50" height="50" relative="1" as="geometry">
            <mxPoint x="90" y="380" as="sourcePoint" />
            <mxPoint x="221" y="150" as="targetPoint" />
          </mxGeometry>
        </mxCell>
        <mxCell id="mOv1wEPNL8f3eLhTAkVn-80" value="" style="endArrow=none;html=1;rounded=0;entryX=0;entryY=0.5;entryDx=0;entryDy=0;exitX=1;exitY=0.3333333333333333;exitDx=0;exitDy=0;exitPerimeter=0;" edge="1" parent="1" source="mOv1wEPNL8f3eLhTAkVn-2" target="mOv1wEPNL8f3eLhTAkVn-8">
          <mxGeometry width="50" height="50" relative="1" as="geometry">
            <mxPoint x="100" y="390" as="sourcePoint" />
            <mxPoint x="220" y="220" as="targetPoint" />
          </mxGeometry>
        </mxCell>
        <mxCell id="mOv1wEPNL8f3eLhTAkVn-81" value="" style="endArrow=none;html=1;rounded=0;entryX=0;entryY=0.5;entryDx=0;entryDy=0;exitX=1;exitY=0.3333333333333333;exitDx=0;exitDy=0;exitPerimeter=0;" edge="1" parent="1" source="mOv1wEPNL8f3eLhTAkVn-2" target="mOv1wEPNL8f3eLhTAkVn-11">
          <mxGeometry width="50" height="50" relative="1" as="geometry">
            <mxPoint x="100" y="390" as="sourcePoint" />
            <mxPoint x="220" y="350" as="targetPoint" />
          </mxGeometry>
        </mxCell>
        <mxCell id="mOv1wEPNL8f3eLhTAkVn-91" value="图片上传" style="ellipse;whiteSpace=wrap;html=1;" vertex="1" parent="1">
          <mxGeometry x="408.75" y="200" width="90" height="40" as="geometry" />
        </mxCell>
        <mxCell id="mOv1wEPNL8f3eLhTAkVn-92" value="" style="endArrow=block;dashed=1;endFill=0;endSize=12;html=1;rounded=0;entryX=0;entryY=0.5;entryDx=0;entryDy=0;" edge="1" parent="1" target="mOv1wEPNL8f3eLhTAkVn-91">
          <mxGeometry width="160" relative="1" as="geometry">
            <mxPoint x="298.75" y="200" as="sourcePoint" />
            <mxPoint x="688.75" y="268.95" as="targetPoint" />
          </mxGeometry>
        </mxCell>
        <mxCell id="mOv1wEPNL8f3eLhTAkVn-93" value="《include》" style="edgeLabel;html=1;align=center;verticalAlign=middle;resizable=0;points=[];" vertex="1" connectable="0" parent="mOv1wEPNL8f3eLhTAkVn-92">
          <mxGeometry x="-0.0826" relative="1" as="geometry">
            <mxPoint as="offset" />
          </mxGeometry>
        </mxCell>
        <mxCell id="mOv1wEPNL8f3eLhTAkVn-94" value="帖子分类" style="ellipse;whiteSpace=wrap;html=1;" vertex="1" parent="1">
          <mxGeometry x="408.75" y="150" width="90" height="40" as="geometry" />
        </mxCell>
        <mxCell id="mOv1wEPNL8f3eLhTAkVn-95" value="" style="endArrow=block;dashed=1;endFill=0;endSize=12;html=1;rounded=0;entryX=0;entryY=0.5;entryDx=0;entryDy=0;exitX=1;exitY=0.5;exitDx=0;exitDy=0;" edge="1" parent="1" target="mOv1wEPNL8f3eLhTAkVn-94" source="mOv1wEPNL8f3eLhTAkVn-5">
          <mxGeometry width="160" relative="1" as="geometry">
            <mxPoint x="528.75" y="270" as="sourcePoint" />
            <mxPoint x="682.75" y="208.95" as="targetPoint" />
          </mxGeometry>
        </mxCell>
        <mxCell id="mOv1wEPNL8f3eLhTAkVn-96" value="《include》" style="edgeLabel;html=1;align=center;verticalAlign=middle;resizable=0;points=[];" vertex="1" connectable="0" parent="mOv1wEPNL8f3eLhTAkVn-95">
          <mxGeometry x="-0.0826" relative="1" as="geometry">
            <mxPoint as="offset" />
          </mxGeometry>
        </mxCell>
        <mxCell id="mOv1wEPNL8f3eLhTAkVn-97" value="回复评论" style="ellipse;whiteSpace=wrap;html=1;" vertex="1" parent="1">
          <mxGeometry x="408.75" y="250" width="90" height="40" as="geometry" />
        </mxCell>
        <mxCell id="mOv1wEPNL8f3eLhTAkVn-102" value="" style="endArrow=none;html=1;rounded=0;entryX=0;entryY=0.3333333333333333;entryDx=0;entryDy=0;exitX=1;exitY=0.5;exitDx=0;exitDy=0;entryPerimeter=0;" edge="1" parent="1" source="mOv1wEPNL8f3eLhTAkVn-14" target="mOv1wEPNL8f3eLhTAkVn-3">
          <mxGeometry width="50" height="50" relative="1" as="geometry">
            <mxPoint x="400" y="440" as="sourcePoint" />
            <mxPoint x="520" y="510" as="targetPoint" />
          </mxGeometry>
        </mxCell>
        <mxCell id="mOv1wEPNL8f3eLhTAkVn-104" value="" style="endArrow=block;dashed=1;endFill=0;endSize=12;html=1;rounded=0;entryX=1;entryY=0.5;entryDx=0;entryDy=0;exitX=0;exitY=0.5;exitDx=0;exitDy=0;" edge="1" parent="1" source="mOv1wEPNL8f3eLhTAkVn-97" target="mOv1wEPNL8f3eLhTAkVn-6">
          <mxGeometry width="160" relative="1" as="geometry">
            <mxPoint x="290" y="320" as="sourcePoint" />
            <mxPoint x="400.25" y="340" as="targetPoint" />
          </mxGeometry>
        </mxCell>
        <mxCell id="mOv1wEPNL8f3eLhTAkVn-105" value="《extend》" style="edgeLabel;html=1;align=center;verticalAlign=middle;resizable=0;points=[];" vertex="1" connectable="0" parent="mOv1wEPNL8f3eLhTAkVn-104">
          <mxGeometry x="-0.0826" relative="1" as="geometry">
            <mxPoint as="offset" />
          </mxGeometry>
        </mxCell>
      </root>
    </mxGraphModel>
  </diagram>
</mxfile>
